<?xml version="1.0" encoding="utf-8"?>
<!-- Generator: Adobe Illustrator 16.0.0, SVG Export Plug-In . SVG Version: 6.00 Build 0)  -->
<!DOCTYPE svg PUBLIC "-//W3C//DTD SVG 1.1//EN" "http://www.w3.org/Graphics/SVG/1.1/DTD/svg11.dtd">
<svg version="1.1" id="Layer_1" xmlns="http://www.w3.org/2000/svg" xmlns:xlink="http://www.w3.org/1999/xlink" x="0px" y="0px"
	 width="365px" height="425px" viewBox="0 0 365 425" enable-background="new 0 0 365 425" xml:space="preserve">
<path fill="#FFFEFE" d="M216.14,278.926h-216C0.14,144.73,91.925,31.973,216.14,0V278.926z M230.14,278.926h133.744
	c0-83-56.744-152.892-133.744-172.651V278.926z M54.766,422.524v-54.32c0-12.5-5.953-19.346-18.9-19.346
	c-8.929,0-17.114,5.654-20.983,11.459v-37.057H0v99.264h14.882v-50.6c2.679-4.911,8.334-9.971,14.733-9.971
	s10.417,2.977,10.417,11.459v49.111H54.766z M99.706,424.311c9.822,0,18.751-4.019,25.001-11.013l-7.143-8.93
	c-4.316,5.061-10.566,7.739-16.37,7.739c-11.906,0-18.305-8.93-18.9-20.688h45.836v-4.464c0-21.579-10.269-38.098-29.912-38.098
	c-19.197,0-30.954,16.816-30.954,37.65C67.264,408.833,79.913,424.311,99.706,424.311z M113.844,380.854H82.146
	c0.298-8.78,4.613-19.793,15.924-19.793C109.677,361.062,113.695,371.925,113.844,380.854z M154.916,422.524v-99.264h-14.733v99.264
	H154.916z M178.429,341.566c5.06,0,9.227-4.167,9.227-9.228c0-5.208-4.167-9.227-9.227-9.227c-5.061,0-9.376,4.019-9.376,9.227
	C169.053,337.399,173.368,341.566,178.429,341.566z M185.721,422.524v-71.881h-14.733v71.881H185.721z M229.472,424.311
	c20.388,0,31.252-17.561,31.252-37.802c0-20.239-10.864-37.65-31.252-37.65c-20.389,0-31.252,17.411-31.252,37.65
	C198.22,406.75,209.083,424.311,229.472,424.311z M229.472,411.214c-11.013,0-15.924-11.607-15.924-24.705
	c0-12.947,4.911-24.555,15.924-24.555s15.774,11.607,15.774,24.555C245.246,399.606,240.484,411.214,229.472,411.214z
	 M363.257,422.524v-54.767c0-13.096-6.696-18.899-17.561-18.899c-8.929,0-17.263,6.25-20.834,12.649
	c-1.638-7.888-7.59-12.649-16.817-12.649c-8.929,0-17.113,6.548-20.09,11.459v-9.674h-14.733v71.881h14.733v-50.6
	c2.679-4.762,7.887-9.971,13.84-9.971c6.399,0,9.078,4.019,9.078,10.715v49.855h14.733v-50.6c2.529-4.911,7.887-9.971,13.84-9.971
	c6.25,0,9.078,3.869,9.078,10.715v49.855H363.257z"/>
</svg>
